<svg width="19" height="25" viewBox="0 0 19 25" fill="none" xmlns="http://www.w3.org/2000/svg">
<path d="M18 11.25C18.4142 11.25 18.75 11.5858 18.75 12C18.75 16.6029 15.0002 20.3604 10.251 20.7217L10.25 24C10.25 24.4142 9.91421 24.75 9.5 24.75C9.1203 24.75 8.8065 24.4676 8.75684 24.1016L8.75 24V20.7217C4.0003 20.3609 0.25 16.6032 0.25 12C0.25 11.5858 0.585786 11.25 1 11.25C1.41421 11.25 1.75 11.5858 1.75 12C1.75 15.9936 5.20997 19.25 9.5 19.25C13.79 19.25 17.25 15.9936 17.25 12C17.25 11.5858 17.5858 11.25 18 11.25ZM9.5 0C12.2614 0 14.5 2.23858 14.5 5V12C14.5 14.7614 12.2614 17 9.5 17C6.73858 17 4.5 14.7614 4.5 12V5C4.5 2.23858 6.73858 0 9.5 0ZM9.5 1.5C7.567 1.5 6 3.067 6 5V12C6 13.933 7.567 15.5 9.5 15.5C11.433 15.5 13 13.933 13 12V5C13 3.067 11.433 1.5 9.5 1.5Z" fill="white"/>
</svg>
