<svg width="19" height="26" viewBox="0 0 19 26" fill="none" xmlns="http://www.w3.org/2000/svg">
<path d="M9.11824 0.936522C9.47824 0.659044 9.98009 0.659257 10.3399 0.937039L10.6844 1.20306C10.8219 1.28054 10.9432 1.37431 11.0433 1.48071L18.5035 7.25298C19.1378 7.74371 19.1378 8.53933 18.5035 9.03005C17.9268 9.47617 17.0243 9.51673 16.3884 9.15172L16.2062 9.03005L11.352 5.27577L11.3537 23.959C11.3537 24.5952 10.7425 25.1209 9.94967 25.2041L9.72925 25.2156C8.90687 25.2156 8.22723 24.7428 8.11967 24.1295L8.10484 23.959L8.10314 5.27577L3.25229 9.03005C2.67559 9.47617 1.77314 9.51673 1.13722 9.15172L0.955026 9.03005C0.378325 8.58394 0.325898 7.88585 0.797744 7.39392L0.955026 7.25298L8.4198 1.47583C8.51751 1.37306 8.63494 1.28222 8.76779 1.20663L9.11824 0.936522Z" fill="white"/>
</svg>
